<svg width="149" height="54" viewBox="0 0 149 54" fill="none" xmlns="http://www.w3.org/2000/svg">
<path d="M1.50803 26.44C1.50803 24.4467 1.8607 22.4993 2.56603 20.598C3.30203 18.666 4.36003 16.918 5.74003 15.354C7.12003 13.7593 8.8067 12.502 10.8 11.582C12.7934 10.6313 15.0627 10.156 17.608 10.156C20.6134 10.156 23.2047 10.8153 25.382 12.134C27.59 13.4527 29.2307 15.17 30.304 17.286L25.428 20.644C24.876 19.4173 24.1554 18.4513 23.266 17.746C22.3767 17.01 21.426 16.504 20.414 16.228C19.402 15.9213 18.4054 15.768 17.424 15.768C15.8294 15.768 14.434 16.09 13.238 16.734C12.0727 17.378 11.0914 18.2213 10.294 19.264C9.4967 20.3067 8.8987 21.472 8.50003 22.76C8.13203 24.048 7.94803 25.336 7.94803 26.624C7.94803 28.0653 8.17803 29.4607 8.63803 30.81C9.09803 32.1287 9.74203 33.3093 10.57 34.352C11.4287 35.364 12.4407 36.1767 13.606 36.79C14.802 37.3727 16.1054 37.664 17.516 37.664C18.528 37.664 19.5554 37.4953 20.598 37.158C21.6407 36.8207 22.6067 36.284 23.496 35.548C24.3854 34.812 25.0754 33.8613 25.566 32.696L30.764 35.686C30.12 37.3113 29.062 38.6913 27.59 39.826C26.1487 40.9607 24.5234 41.8193 22.714 42.402C20.9047 42.9847 19.1107 43.276 17.332 43.276C15.0014 43.276 12.87 42.8007 10.938 41.85C9.00603 40.8687 7.3347 39.5807 5.92403 37.986C4.54403 36.3607 3.45536 34.5513 2.65803 32.558C1.89136 30.534 1.50803 28.4947 1.50803 26.44ZM34.4232 43V18.896H40.5872V43H34.4232ZM34.4232 15.538V9.42H40.5872V15.538H34.4232ZM60.4998 24.232C58.6291 24.232 56.9578 24.6 55.4858 25.336C54.0138 26.0413 52.9558 27.0687 52.3118 28.418V43H46.1478V18.896H51.8058V24.048C52.6645 22.392 53.7531 21.0887 55.0718 20.138C56.3905 19.1873 57.7858 18.666 59.2578 18.574C59.5951 18.574 59.8558 18.574 60.0398 18.574C60.2238 18.574 60.3771 18.5893 60.4998 18.62V24.232ZM74.8464 43.46C72.8837 43.46 71.1204 43.138 69.5564 42.494C67.9924 41.8193 66.6584 40.8993 65.5544 39.734C64.4504 38.538 63.5917 37.1887 62.9784 35.686C62.3957 34.1833 62.1044 32.604 62.1044 30.948C62.1044 28.6787 62.6104 26.6087 63.6224 24.738C64.6651 22.8367 66.1371 21.3187 68.0384 20.184C69.9397 19.0493 72.1937 18.482 74.8004 18.482C77.4071 18.482 79.6457 19.0493 81.5164 20.184C83.3871 21.3187 84.7824 22.806 85.7024 24.646L79.6764 26.486C79.1551 25.5967 78.4651 24.922 77.6064 24.462C76.7477 23.9713 75.7971 23.726 74.7544 23.726C73.5891 23.726 72.5157 24.0327 71.5344 24.646C70.5837 25.2287 69.8324 26.072 69.2804 27.176C68.7284 28.2493 68.4524 29.5067 68.4524 30.948C68.4524 32.3587 68.7284 33.616 69.2804 34.72C69.8631 35.7933 70.6297 36.652 71.5804 37.296C72.5311 37.9093 73.5891 38.216 74.7544 38.216C75.4904 38.216 76.1804 38.0933 76.8244 37.848C77.4991 37.6027 78.0971 37.2653 78.6184 36.836C79.1397 36.4067 79.5231 35.916 79.7684 35.364L85.7944 37.204C85.2424 38.4 84.4297 39.4733 83.3564 40.424C82.3137 41.3747 81.0717 42.126 79.6304 42.678C78.2197 43.1993 76.6251 43.46 74.8464 43.46ZM89.5413 9.42H95.7053V35.272C95.7053 36.376 95.8893 37.1273 96.2573 37.526C96.6253 37.894 97.1313 38.078 97.7753 38.078C98.2659 38.078 98.7719 38.0167 99.2933 37.894C99.8146 37.7713 100.275 37.618 100.673 37.434L101.501 42.126C100.673 42.5247 99.7073 42.8313 98.6032 43.046C97.4993 43.2607 96.5026 43.368 95.6133 43.368C93.6813 43.368 92.1786 42.862 91.1053 41.85C90.0626 40.8073 89.5413 39.3353 89.5413 37.434V9.42ZM115.365 43.46C113.433 43.46 111.685 43.138 110.121 42.494C108.557 41.8193 107.223 40.9147 106.119 39.78C105.015 38.6147 104.156 37.296 103.543 35.824C102.96 34.3213 102.669 32.742 102.669 31.086C102.669 28.786 103.175 26.6853 104.187 24.784C105.23 22.8827 106.702 21.3647 108.603 20.23C110.535 19.0647 112.804 18.482 115.411 18.482C118.048 18.482 120.302 19.0647 122.173 20.23C124.044 21.3647 125.47 22.8827 126.451 24.784C127.463 26.6547 127.969 28.6787 127.969 30.856C127.969 31.224 127.954 31.6073 127.923 32.006C127.892 32.374 127.862 32.6807 127.831 32.926H109.201C109.324 34.1527 109.676 35.226 110.259 36.146C110.872 37.066 111.639 37.7713 112.559 38.262C113.51 38.722 114.522 38.952 115.595 38.952C116.822 38.952 117.972 38.6607 119.045 38.078C120.149 37.4647 120.9 36.6673 121.299 35.686L126.589 37.158C126.006 38.3847 125.163 39.4733 124.059 40.424C122.986 41.3747 121.713 42.126 120.241 42.678C118.769 43.1993 117.144 43.46 115.365 43.46ZM109.063 29.016H121.667C121.544 27.7893 121.192 26.7313 120.609 25.842C120.057 24.922 119.321 24.2167 118.401 23.726C117.481 23.2047 116.454 22.944 115.319 22.944C114.215 22.944 113.203 23.2047 112.283 23.726C111.394 24.2167 110.658 24.922 110.075 25.842C109.523 26.7313 109.186 27.7893 109.063 29.016Z" fill="black"/>
<path d="M141.212 36.92H136.772V31.08H130.812V26.68H136.772V20.88H141.212V26.68H147.172V31.08H141.212V36.92Z" fill="black"/>
</svg>
